<svg width="512" height="512" version="1.1" viewBox="0 0 512 512" xmlns="http://www.w3.org/2000/svg" xmlns:xlink="http://www.w3.org/1999/xlink">
  <g fill="#fff" fill-rule="evenodd">
    <circle cx="256" cy="256" r="40" color="#000000" />
    <path d="m255.49 16a240 240 0 0 0-239.49 240 240 240 0 0 0 240 240 240 240 0 0 0 240-240 240 240 0 0 0-240-240 240 240 0 0 0-0.50781 0zm0.50781 30a210 210 0 0 1 210 210 210 210 0 0 1-210 210 210 210 0 0 1-210-210 210 210 0 0 1 210-210z" color="#000000" />
    <path d="m236 222v-105l20-20 20 20v105z" color="#000000" />
    <path d="m295.44 255.68 90.933 52.5 7.3205 27.321-27.321 7.3205-90.933-52.5z" color="#000000" />
  </g>
</svg>
